<svg viewBox="0 0 160 160" xmlns="http://www.w3.org/2000/svg">
  <rect width="160" height="160" rx="32" fill="#D6D1C0"/>
  <g transform="translate(26 26) scale(1)">
    <path fill="#15151a" d="M53.6644 33.5287C59.2244 33.5287 63.8744 30.2487 66.0244 25.0887C67.2044 22.2587 66.8144 18.0387 67.5544 15.3587C68.9877 10.1653 71.8377 6.17202 76.1044 3.37868C91.3244 -6.56132 110.474 6.90868 106.874 24.5687C105.921 29.2287 103.324 33.2254 99.0844 36.5587C99.0267 36.6031 98.9797 36.6599 98.9467 36.7248C98.9137 36.7897 98.8956 36.8611 98.8937 36.9339C98.8917 37.0067 98.9061 37.079 98.9356 37.1456C98.9651 37.2121 99.0091 37.2713 99.0644 37.3187C99.9377 38.072 100.861 38.9454 101.834 39.9387C107.724 45.9087 108.944 55.3787 105.134 62.8987C102.581 67.9187 98.4244 71.3587 92.6644 73.2187C89.7144 74.1687 85.2644 73.6287 81.9944 74.9887C77.9877 76.6553 75.3611 79.8387 74.1144 84.5387C74.0342 84.8427 73.9939 85.1554 73.9944 85.4687C74.0844 97.5887 65.9744 107.319 53.6544 107.319C41.3444 107.319 33.2244 97.5887 33.3244 85.4687C33.3249 85.1554 33.2845 84.8427 33.2044 84.5387C31.9577 79.8387 29.3311 76.6553 25.3244 74.9887C22.0544 73.6287 17.6044 74.1687 14.6544 73.2187C8.8944 71.3587 4.73773 67.9187 2.18439 62.8987C-1.62561 55.3787 -0.40561 45.9087 5.48439 39.9387C6.45772 38.9454 7.38106 38.072 8.25439 37.3187C8.30965 37.2713 8.35365 37.2121 8.38319 37.1456C8.41272 37.079 8.42706 37.0067 8.42514 36.9339C8.42322 36.8611 8.40511 36.7897 8.37212 36.7248C8.33912 36.6599 8.29207 36.6031 8.23439 36.5587C3.99439 33.2254 1.39773 29.2287 0.444393 24.5687C-3.15561 6.90868 15.9944 -6.56132 31.2144 3.37868C35.4811 6.17202 38.3311 10.1653 39.7644 15.3587C40.5044 18.0387 40.1144 22.2587 41.2944 25.0887C43.4444 30.2487 48.0944 33.5287 53.6644 33.5287ZM53.6544 66.9287C59.9144 66.9287 65.5044 62.5587 66.6144 56.4187C67.0744 53.8987 66.9044 50.7887 67.7044 48.2187C70.1244 40.4687 76.5744 34.3887 85.0044 33.6787C85.9711 33.592 86.9177 33.522 87.8444 33.4687C99.2744 32.7487 104.444 19.5087 96.7944 11.2287C90.0544 3.92868 78.7844 6.53868 74.8344 15.2887C74.3744 16.3087 74.0377 18.3287 73.8244 21.3487C73.0644 32.2087 64.5244 40.4387 53.6544 40.4387C42.7844 40.4387 34.2444 32.1987 33.4844 21.3487C33.2711 18.3287 32.9344 16.3087 32.4744 15.2887C28.5244 6.53868 17.2544 3.91868 10.5144 11.2187C2.8644 19.4987 8.03439 32.7387 19.4644 33.4587C20.3911 33.512 21.3377 33.5853 22.3044 33.6787C30.7344 34.3887 37.1844 40.4687 39.6044 48.2187C40.4044 50.7887 40.2344 53.8987 40.6944 56.4187C41.8044 62.5587 47.3944 66.9287 53.6544 66.9287ZM53.6544 100.379C59.9144 100.379 65.5044 96.0087 66.6144 89.8687C67.0744 87.3387 66.9044 84.2287 67.7044 81.6587C70.1244 73.9087 76.5744 67.8287 85.0044 67.1187C85.9711 67.032 86.9177 66.962 87.8444 66.9087C99.2744 66.1887 104.444 52.9387 96.7944 44.6587C90.0544 37.3587 78.7844 39.9787 74.8344 48.7287C74.3744 49.7487 74.0377 51.7687 73.8244 54.7887C73.0644 65.6487 64.5244 73.8787 53.6544 73.8787C42.7744 73.8787 34.2444 65.6487 33.4744 54.7887C33.2611 51.7687 32.9244 49.7487 32.4644 48.7287C28.5144 39.9787 17.2444 37.3687 10.5044 44.6687C2.85439 52.9487 8.02439 66.1887 19.4544 66.9087C20.3811 66.962 21.3277 67.032 22.2944 67.1187C30.7244 67.8287 37.1744 73.9087 39.5944 81.6587C40.3944 84.2287 40.2244 87.3387 40.6844 89.8687C41.8044 96.0087 47.3944 100.379 53.6544 100.379Z"/>
  </g>
</svg>
